<?xml version="1.0" encoding="UTF-8" standalone="no"?><svg xmlns="http://www.w3.org/2000/svg" xmlns:xlink="http://www.w3.org/1999/xlink" fill="#000000" height="500.4" preserveAspectRatio="xMidYMid meet" version="1" viewBox="-7.1 -0.4 450.0 500.4" width="450" zoomAndPan="magnify"><g fill="#583536" id="change1_1"><path d="M156.426,366.6c-9.681-6.36-22.195-8.2-35.241-5.207-6.415,1.478-10.364,3.528-15.364,6.125-.932.485-1.9.989-2.938,1.513-4.086,2.076-10.167,3.06-14.511,3.05-13.227-.21-25.932-6.889-27.64-9.035a.965.965,0,1,0-1.509,1.2c1.854,2.33,14.71,9.33,28.447,9.765a26.429,26.429,0,0,0,.694,14.835,23.926,23.926,0,0,0,13.119,14.587c15.7,6.839,21.5,15.207,18.814,27.131-.117.52.209,1.036.942,1.178a.965.965,0,0,0,.941-.752,21.629,21.629,0,0,0-.7-12.968c2.452,1.8,5.583,3.448,8.883,3.448a9.513,9.513,0,0,0,1.423-.105.964.964,0,1,0-.287-1.907c-6.607,1-13.4-7.173-13.463-7.258a.968.968,0,0,0-.265-.215c-4.169-4.815-10.229-8.016-15.519-10.32C90.338,396.472,87.046,382.5,89.69,374.025a32.079,32.079,0,0,0,14.067-3.275c1.039-.528,2.015-1.037,2.953-1.523,4.878-2.533,8.732-4.534,14.908-5.957,12.524-2.886,24.51-1.131,33.749,4.939A32.322,32.322,0,0,1,169.7,389.438a.966.966,0,0,0,.948.789,1,1,0,0,0,.95-1.14A34.234,34.234,0,0,0,156.426,366.6Z" fill="inherit"/><path d="M68.042,181.437c-.163,1.469-.408,2.924-.65,4.363-.832,4.942-1.691,10.053,1.1,14.68a.965.965,0,1,0,1.652-1c-2.417-4.015-1.654-8.556-.845-13.365.248-1.472.5-2.965.665-4.466a34.035,34.035,0,0,0,.176-4.905c4.717,7.234,13.009,8.968,18.642,8.035a103.353,103.353,0,0,0,13.583-3.417c2.647-.8,5.385-1.625,8.377-2.369,9.547-2.375,17.187-2.162,23.358.65a25.148,25.148,0,0,1,4.44,2.631.94.94,0,0,0,.445.383c.037.014.075.023.111.037,4.25,3.27,7.795,7.785,11.3,12.527a.965.965,0,1,0,1.551-1.149,81.673,81.673,0,0,0-8.52-10.169,26.008,26.008,0,0,0,4.7.429,25.159,25.159,0,0,0,10.771-2.375.964.964,0,1,0-.83-1.741,24.058,24.058,0,0,1-18.031.768,27.386,27.386,0,0,0-5.143-3.1c-6.583-3-14.637-3.252-24.624-.766-3.039.757-5.8,1.59-8.469,2.4a102.086,102.086,0,0,1-13.342,3.36c-5.646.94-17-.893-19.54-14.547a.96.96,0,0,0-.169-.381,37.291,37.291,0,0,0-12.022-18.6.965.965,0,0,0-1.223,1.493A35.43,35.43,0,0,1,68.042,181.437Z" fill="inherit"/><path d="M165.053,210.532a.923.923,0,0,0,.268-.038,23.152,23.152,0,0,0,9.394-5.732c-1.546,10.183,5.432,27.008,15.566,31.167a.966.966,0,0,0,.733-1.787c-10.124-4.152-17.038-25.659-12.4-32.624.714-1.046,7.585-11.918,3.462-18.7a1.009,1.009,0,0,0-1.276-.479.964.964,0,0,0-.48,1.278c1.251,2.756-.7,8.525-2.321,12.441a22.237,22.237,0,0,1-8.652,10.5,18.438,18.438,0,0,1-4.568,2.081.965.965,0,0,0,.269,1.892Z" fill="inherit"/><path d="M80.972,117.983a39.145,39.145,0,0,1,4.946,2.508c-3.962-.773-9.093-.481-13.21,4.143a.965.965,0,0,0,1.442,1.283c6.759-7.592,16.61-1.732,17.025-1.479a.886.886,0,0,0,.212.077c5.455,4.931,8.676,11.236,8.9,17.938a36.051,36.051,0,0,0-10.406,11.67.963.963,0,0,0,.347,1.319.95.95,0,0,0,.485.132.964.964,0,0,0,.834-.479,34.247,34.247,0,0,1,10.007-11.228.958.958,0,0,0,.449-.286c6.211-4.094,13.759-5.425,22.8-4.019a.965.965,0,1,0,.3-1.907c-8.882-1.376-16.549-.157-22.947,3.61C101.315,130.7,93.637,121.2,81.719,116.2c-1.69-.709-7.223-3.471-7.5-9.295A.965.965,0,1,0,72.3,107C72.622,113.954,79.02,117.165,80.972,117.983Z" fill="inherit"/><path d="M89.16,348.8a.965.965,0,0,0,.962.9.979.979,0,0,0,.964-1.031c-.028-.4-.66-6.9-11.084-10.771,8.5-.38,24.741-2.974,37.117-16.2a.965.965,0,0,0-1.41-1.319c-16.779,17.932-41,15.554-41.241,15.532a168.756,168.756,0,0,0-18.171-.766c-26.81,1.075-33.527-18.036-33.8-18.849a.965.965,0,0,0-1.831.608,28.807,28.807,0,0,0,7.157,10.554c4.879,4.706,13.787,10.194,28.55,9.617C87.694,335.838,89.151,348.674,89.16,348.8Z" fill="inherit"/><path d="M198.607,350.36a.966.966,0,0,0-.924-1.7c-6.578,3.591-13.054,1.832-17.173-.106a26.337,26.337,0,0,1-5.491-3.488A57.515,57.515,0,0,0,164.18,338.2c-26.3-13.137-25.531-31.009-24.766-35.876a58.8,58.8,0,0,0,18.969,8.555.932.932,0,0,0,.239.03.965.965,0,0,0,.236-1.9,56.974,56.974,0,0,1-28.344-16.99.963.963,0,0,0-.158-.175,49.277,49.277,0,0,1-7.758-11.072.965.965,0,0,0-1.76.794,45.808,45.808,0,0,0,4.935,7.779c-16.263-7.126-36.461-.407-38.683.375-1.078-.013-9.024-.35-15.249-8.211a.965.965,0,0,0-1.513,1.2,22.65,22.65,0,0,0,15.56,8.878c-1.607,4-7.762,16.733-21.079,17.2a.965.965,0,0,0,.033,1.93c15.585-.544,22.085-16.317,23.166-19.268,3.357-1.116,25.713-7.947,41.03,1.806a59.979,59.979,0,0,0,8.651,7.841c-.675,3.491-3.334,24.363,25.627,38.832,26.476,13.227,20.051,29.238,19.764,29.915a.965.965,0,0,0,1.773.761,18.025,18.025,0,0,0,.322-11.019,24.447,24.447,0,0,0-4.54-8.839,22.08,22.08,0,0,0,8.872,1.977A18.794,18.794,0,0,0,198.607,350.36Z" fill="inherit"/><path d="M435.051,265.615c1.926-12-.393-23.657-6.059-30.845C431.768,210.981,423.7,198,415.73,191.1a16.177,16.177,0,0,0,.46-1.9c1.671-9.634.466-19.106-3.792-29.813-3.268-7.784-7.472-13.163-12.53-16.063,3.988-20.412-.653-38.842-13.813-54.813a45.066,45.066,0,0,0-14.219-11.774C367.9,54.971,350.276,22.9,308.8,19.65,295.948,3.708,270.822,5.07,270.6,4.942c-3.055-1.729-9.4-5.317-17.356-4.91C238.636.8,226.179,8.766,221.5,20.325c-2.788,6.891-3.065,14.451-3.309,21.122l-.335,9.146-.336-9.146c-.244-6.671-.521-14.231-3.308-21.122C209.538,8.766,197.081.8,182.478.032c-7.96-.407-14.3,3.181-17.356,4.91-.226.128-25.353-1.234-38.2,14.708C85.441,22.9,67.814,54.971,63.881,76.739A45.077,45.077,0,0,0,49.662,88.513c-13.159,15.971-17.8,34.4-13.812,54.813-5.058,2.9-9.262,8.279-12.531,16.063-4.257,10.707-5.463,20.179-3.792,29.813a16.585,16.585,0,0,0,.46,1.9C12.015,198,3.949,210.981,6.725,234.77,1.059,241.958-1.26,253.616.666,265.615c1.585,9.879,4.262,15.443,6.164,18.78a34.535,34.535,0,0,0,2.348,4.028c-16.316,28.808,3.856,61.657,8.7,68.811-2.058,10.318-7.666,50.756,26.284,67.336a18.474,18.474,0,0,1,6.518,5.756l4.516,10.288a2.872,2.872,0,0,0,.592.873,47.035,47.035,0,0,0,4.72,7.664C72.556,465.165,84.9,467.779,91.53,469.185c.634.133,1.209.254,1.716.377.434.1.728.19.924.254,7.648,22.105,31.617,29.108,43.944,27.033C142.8,498.86,149.51,500,156.8,500c8.593,0,17.988-1.587,25.8-5.209,9.081-4.21,15.041-10.686,17.258-18.746,5.08-2.378,11.942-7.407,15.756-17.847,1.091-2.986,1.859-9.729,2.249-18.022v0c.39,8.293,1.158,15.036,2.248,18.022,3.815,10.44,10.677,15.469,15.757,17.847,2.217,8.06,8.177,14.536,17.258,18.746,7.812,3.622,17.206,5.209,25.8,5.209,7.286,0,14-1.14,18.682-3.151,12.326,2.075,36.3-4.928,43.944-27.033.195-.064.49-.149.924-.254.507-.123,1.082-.244,1.716-.377,6.631-1.406,18.973-4.02,31.025-20.034a47.1,47.1,0,0,0,4.719-7.664,2.874,2.874,0,0,0,.593-.873l4.516-10.288a18.471,18.471,0,0,1,6.517-5.756c33.951-16.58,28.343-57.018,26.285-67.336,4.84-7.154,25.012-40,8.7-68.811a34.777,34.777,0,0,0,2.349-4.028C430.789,281.058,433.467,275.494,435.051,265.615ZM239.675,124.761c-7.516-6.2-11.562-12.375-13.914-18.423a42.919,42.919,0,0,0-1.161-5.865c-.17-.682-.34-1.365-.5-2.048-1.281-5.639-1.325-17.648-1.218-24.879a24.342,24.342,0,0,1,6.278-16.178l.088-.1c6.907-7.42,17.546-10.754,31.629-9.934a26.978,26.978,0,0,1,6.507,1.5,27.328,27.328,0,0,0,7.315,1.6c4.48.167,10.337-1.327,13.294-5.963a.965.965,0,1,0-1.626-1.039c-2.523,3.952-7.66,5.223-11.6,5.075a25.577,25.577,0,0,1-6.8-1.512,42.154,42.154,0,0,0-4.688-1.275c1.411-1.549,3.144-4.52,3.7-10.045a.965.965,0,0,0-1.92-.194c-.74,7.345-3.652,9.5-4.346,9.916-14.542-.8-25.609,2.746-32.879,10.556a30.971,30.971,0,0,0-4.623,6.492l.762-20.79c.237-6.5.484-13.215,2.89-19.163,3.837-9.483,14.307-16.032,26.673-16.682,6.264-.342,14.235,1.3,18.5,5.346l.3.091c1.784,2.7,4.181,7.272,3.638,11.762a.989.989,0,0,0,.959,1.081.965.965,0,0,0,.958-.849c.525-4.349-1.275-8.617-3.024-11.6,4.129-1.089,21.8.631,32.969,12.737a27.03,27.03,0,0,1,6.786,11.08,37.245,37.245,0,0,1-2.415,27.914c-6.275,10.938-5.615,21.491-18,29.967-.01,0-.021,0-.032.005a.959.959,0,0,0-.316.19,20.836,20.836,0,0,1-9.64,2.616c-1.642.019-3.344-.064-4.987-.141-4.825-.224-9.816-.454-14.419,1.564-7.972,3.493-10.507,9.195-11.309,12.284a.964.964,0,0,0,.691,1.176.931.931,0,0,0,.243.031.965.965,0,0,0,.933-.722c.715-2.75,2.991-7.837,10.217-11,4.189-1.836,8.74-1.625,13.555-1.4,1.668.077,3.41.147,5.091.143a22.423,22.423,0,0,0,9.712-2.43c2.855,9.134,3.981,27.117-1.2,39.5-2.032,4.859-9.544,14.258-19.484,22.163a25.954,25.954,0,0,1-15.028.259.965.965,0,0,0-.535,1.855,27.526,27.526,0,0,0,7.613,1.064,28.061,28.061,0,0,0,5.7-.605c-3.2,4.146-6.835,11.107-3.26,18.578a.965.965,0,0,0,1.742-.833c-3.912-8.172,2.142-15.856,4.928-18.781,8.908-7.045,17.6-16.952,20.108-22.956,5.419-12.958,4.168-31.842,1.141-41.178a30.822,30.822,0,0,0,11.452-12.18,17.5,17.5,0,0,0,4.96,11.848.948.948,0,0,0,.33.216,49.282,49.282,0,0,0,19.874,11.7.965.965,0,0,0,.56-1.847,47.305,47.305,0,0,1-19.355-11.481.968.968,0,0,0-.214-.139c-9.74-10.191.513-28.35.619-28.534a39.239,39.239,0,0,0,2.552-29.434,29.582,29.582,0,0,0-5.2-9.585h0c31.215,3.09,50.379,31.2,54.6,51.12-8.21-2.594-15.686-1.322-20.216,1.27a.966.966,0,0,0-.358,1.318c.265.461.8.452,1.317.358,19.459-3.5,30.91,7.915,34.982,12.857,12.184,14.787,16.287,31.192,12.566,50.077a21.712,21.712,0,0,0-10.676-.017,1.993,1.993,0,0,0-1.566,2.028,1.93,1.93,0,0,0,2.367,1.748c3.531-.829,15.993-.233,22.761,15.549,4.137,9.646,4.89,17.972,3.447,26.632-.929,5.568-6.156,12.9-11.667,13.856a60.665,60.665,0,0,0,1.276-9.755,1.93,1.93,0,1,0-3.856-.185c-.773,16.291-8.895,32.634-21.195,42.656-8.428,6.868-17.961,9.873-26.857,8.479-24.605-3.866-47.154,1.736-61.114,14.73a24.468,24.468,0,0,0,.232-7.6,1.93,1.93,0,1,0-3.828.5c.847,6.542-2.491,14.389-8.888,21.049-11.3,11.764-35.755,13.466-44.636,8.516a10.339,10.339,0,0,1-4.655-5.871c-3.208-9-6.276-63.628,1.928-83.75,1.883-4.619,7.739-12.228,16.859-16.227a.963.963,0,0,0-.965-.964c-7.068,0-12.078,3.991-15.072,7.4a2.834,2.834,0,0,0-.339-.467c-2.4-2.622-4.867-14.822-4.991-36.169-.008-1.493-.031-2.989-.054-4.488-.117-7.876-.229-15.317,1.561-22.549.132-.533.273-1.066.415-1.6a40.214,40.214,0,0,0,1.063-4.822,48.313,48.313,0,0,0,12.745,15.3.965.965,0,0,0,1.227-1.49ZM216.736,101.87c.18-.721.358-1.442.523-2.163.232-1.024.425-2.05.6-3.078.175,1.028.368,2.054.6,3.078.164.721.343,1.442.523,2.163a25.566,25.566,0,0,1,1.1,7.076,25.844,25.844,0,0,1-1.04,5.348c-.148.563-.3,1.127-.438,1.691-.3,1.209-.536,2.423-.746,3.639-.21-1.216-.447-2.43-.746-3.639-.14-.564-.29-1.128-.439-1.691a25.839,25.839,0,0,1-1.039-5.348A25.566,25.566,0,0,1,216.736,101.87Zm1.123,62.331h0c.756,7.587,2.1,14.764,4.436,18.716a89.362,89.362,0,0,0-4.436,19.853,89.3,89.3,0,0,0-4.437-19.853C215.763,178.965,217.1,171.788,217.859,164.2ZM28.678,161.579C35.447,145.8,47.909,145.2,51.439,146.03a1.931,1.931,0,0,0,2.368-1.748,1.994,1.994,0,0,0-1.566-2.028,21.716,21.716,0,0,0-10.677.017c-3.721-18.885.383-35.29,12.566-50.077C58.2,87.252,69.654,75.836,89.113,79.337c.522.094,1.051.1,1.317-.358a.966.966,0,0,0-.358-1.318c-4.531-2.592-12.006-3.864-20.217-1.27,4.216-19.917,23.381-48.03,54.6-51.12h0a29.6,29.6,0,0,0-5.2,9.585,39.235,39.235,0,0,0,2.553,29.434c.106.184,10.358,18.343.619,28.534a.924.924,0,0,0-.214.139,47.312,47.312,0,0,1-19.355,11.481.965.965,0,0,0,.28,1.888.979.979,0,0,0,.28-.041,49.271,49.271,0,0,0,19.873-11.7.961.961,0,0,0,.331-.216,17.5,17.5,0,0,0,4.96-11.848,30.813,30.813,0,0,0,11.451,12.18c-3.026,9.336-4.277,28.22,1.142,41.178,2.512,6,11.2,15.911,20.108,22.956,2.785,2.925,8.84,10.609,4.928,18.781a.965.965,0,1,0,1.742.833c3.575-7.471-.063-14.432-3.26-18.578a28.051,28.051,0,0,0,5.7.605A27.521,27.521,0,0,0,178,159.421a.965.965,0,0,0-.535-1.855,25.95,25.95,0,0,1-15.027-.259c-9.941-7.905-17.453-17.3-19.485-22.163-5.177-12.378-4.05-30.361-1.2-39.5a22.422,22.422,0,0,0,9.711,2.43c1.682,0,3.424-.066,5.092-.143,4.814-.222,9.365-.433,13.555,1.4,7.226,3.165,9.5,8.252,10.216,11a.966.966,0,0,0,.933.722.926.926,0,0,0,.243-.031.964.964,0,0,0,.692-1.176c-.8-3.089-3.338-8.791-11.31-12.284-4.6-2.018-9.593-1.788-14.419-1.564-1.642.077-3.345.16-4.986.141a20.836,20.836,0,0,1-9.64-2.616.964.964,0,0,0-.317-.19.306.306,0,0,0-.032-.005c-12.379-8.476-11.72-19.029-17.995-29.967a37.245,37.245,0,0,1-2.415-27.914,27.031,27.031,0,0,1,6.787-11.08c11.169-12.106,28.839-13.826,32.968-12.737-1.748,2.988-3.549,7.256-3.023,11.605a.964.964,0,0,0,.957.849.988.988,0,0,0,.959-1.081c-.543-4.49,1.855-9.062,3.639-11.762l.3-.091c4.263-4.047,12.235-5.688,18.5-5.346,12.365.65,22.835,7.2,26.673,16.682,2.4,5.948,2.652,12.666,2.89,19.163l.762,20.79a31.007,31.007,0,0,0-4.623-6.492C200.606,48.147,189.54,44.6,175,45.4c-.694-.414-3.607-2.571-4.346-9.916a.965.965,0,0,0-1.92.194c.556,5.525,2.29,8.5,3.7,10.045A42.112,42.112,0,0,0,167.744,47a25.577,25.577,0,0,1-6.8,1.512c-3.94.148-9.078-1.123-11.6-5.075a.965.965,0,0,0-1.627,1.039c2.958,4.636,8.814,6.13,13.294,5.963a27.319,27.319,0,0,0,7.315-1.6,26.975,26.975,0,0,1,6.508-1.5c14.083-.82,24.721,2.514,31.628,9.934l.089.1a24.342,24.342,0,0,1,6.278,16.178c.107,7.231.062,19.24-1.219,24.879-.154.683-.325,1.366-.5,2.048a43.071,43.071,0,0,0-1.161,5.865c-2.352,6.048-6.4,12.226-13.914,18.423a.965.965,0,0,0,1.227,1.49,48.3,48.3,0,0,0,12.745-15.3,40.022,40.022,0,0,0,1.064,4.822c.141.532.283,1.065.414,1.6,1.791,7.232,1.678,14.673,1.561,22.549-.022,1.5-.045,2.995-.054,4.488-.123,21.347-2.595,33.547-4.99,36.169a2.9,2.9,0,0,0-.34.467c-2.993-3.411-8-7.4-15.072-7.4a.963.963,0,0,0-.964.964c9.12,4,14.976,11.608,16.859,16.227,8.2,20.122,5.135,74.745,1.927,83.75a10.339,10.339,0,0,1-4.655,5.871c-8.881,4.95-33.336,3.248-44.635-8.516-6.4-6.66-9.736-14.507-8.889-21.049a1.93,1.93,0,1,0-3.827-.5,24.468,24.468,0,0,0,.232,7.6c-13.96-12.994-36.509-18.6-61.114-14.73-8.9,1.394-18.43-1.611-26.858-8.479-12.3-10.022-20.422-26.365-21.194-42.656a1.93,1.93,0,1,0-3.856.185,60.552,60.552,0,0,0,1.276,9.755c-5.511-.96-10.739-8.288-11.667-13.856C23.789,179.551,24.541,171.225,28.678,161.579ZM210.171,456.211c-3.588,9.827-10.175,13.861-15.068,15.516a2.876,2.876,0,0,0-1.009.6,45.527,45.527,0,0,1-11.242,2.141.963.963,0,0,0-.937.991c.013.524,5.309,2.1,10.944.488-.291,4.426-5.848,10.267-12.7,13.594-14.079,6.837-40.237,6.682-46.272-4.729a1,1,0,0,0-1.252-.542.964.964,0,0,0-.544,1.251,13.4,13.4,0,0,0,4.537,5.7c-10.33,1.45-30.483-4.833-36.929-23.167.133,0,.277.011.408.011,15.591,0,22.641-6.943,25.493-9.752l.282-.276a37.46,37.46,0,0,0,4.31.246,34.171,34.171,0,0,0,13.509-2.629c3.448,10.3,14.392,15.917,22.868,16.9a16.443,16.443,0,0,0-5.249,6.752.965.965,0,0,0,1.779.747c.6-1.422,2.916-6.145,7.733-7.421a22.336,22.336,0,0,0,14.308-7.5,15.908,15.908,0,0,0,3.59-11.978,14.548,14.548,0,0,0,4.4-1.858.964.964,0,1,0-1.016-1.639c-6.722,4.165-11.523.252-11.725.083a.965.965,0,0,0-1.249,1.472,11.454,11.454,0,0,0,6.882,2.263q.388,0,.794-.027a14.03,14.03,0,0,1-3.168,10.458,20.283,20.283,0,0,1-13.108,6.826c-8.024.649-21.469-4.605-25.089-15.922a21.207,21.207,0,0,0,5.634-4.29c7.915-8.565,9.688-19.577,9.31-27.028,3.705,5.162,9.635,7.769,17.724,7.769.777,0,1.574-.022,2.391-.071a19.394,19.394,0,0,0,18.222-17.341.964.964,0,0,0-.857-1.061.954.954,0,0,0-1.061.858A17.472,17.472,0,0,1,180.4,429.258c-11.23.662-18.117-3.324-21.015-12l-.021-.09c-1.685-11.634-12.3-20.98-21.637-23.309a.965.965,0,0,0-.467,1.873c8.558,2.133,18.72,11.085,20.256,22l0,0v0c1.8,5.249,2.326,20.459-7.847,31.467-7.9,8.543-22.747,7.989-28.583,5.816a.965.965,0,0,0-.673,1.809,20.05,20.05,0,0,0,3.084.837c-11.9,9.611-30.079,6-30.769,5.854-5.889-1.248-16.852-3.57-27.6-17.849-1.252-1.665-4.633-8.411-6.951-13.148A30.777,30.777,0,0,1,55.1,421.3c-.011-.143-.02-.278-.027-.4-.211-3.628-.393-6.759-1.505-9.367a.965.965,0,0,0-1.775.758c.98,2.3,1.154,5.273,1.354,8.72.066,1.129.138,2.306.235,3.519a22,22,0,0,0-6.679-5.153c-19.1-9.329-24.044-27.486-24.628-41.959-.011-.825-.03-1.645-.011-2.484.044-1.94.07-3.71.084-5.349A83.174,83.174,0,0,1,23.488,358.7c7.3,8.719,14.906,14.085,21.436,18.687,2.148,1.513,4.181,2.946,6.059,4.393a.935.935,0,0,0,.323.4c.072.047.381.248.856.535,4.979,4.012,8.7,8.281,10.265,14.768A44.169,44.169,0,0,0,69.28,413.2c1.982,2.758,5.594,7.759,12.074,10.239a.956.956,0,0,0,.3.281c.087.052,8.773,5.247,9.633,13.793a.965.965,0,0,0,.959.869.984.984,0,0,0,.961-1.061c-.585-5.818-4.26-10.133-7.119-12.668a24.593,24.593,0,0,0,3.547.267,32.6,32.6,0,0,0,8.108-1.1.965.965,0,0,0-.481-1.869c-14.372,3.692-21.415-2.923-26.412-9.881A42.28,42.28,0,0,1,64.3,397.025a24.944,24.944,0,0,0-6-11.256,26.165,26.165,0,0,0,9.454,2.106,12.784,12.784,0,0,0,5.292-1.053.966.966,0,0,0-.8-1.76c-6.468,2.927-16.057-2.209-18.993-3.95-2.2-1.763-4.63-3.478-7.221-5.3-6.785-4.779-14.754-10.4-22.276-19.833a2.869,2.869,0,0,0-.442-1.05c-2.616-3.673-25.307-35.56-9.386-63.17A52.5,52.5,0,0,0,27.5,304.338a.965.965,0,1,0,1.065-1.609C22.636,298.8,8.206,278.289,6.382,264.7c-1.294-9.642.034-19.11,4.009-25.1a26,26,0,0,0,4.991,6.782c5.051,4.826,14.493,9.159,19.91,15.506,4.488,5.256,9.3,12.99,7.754,24.3A.991.991,0,0,0,44,287.279a.965.965,0,0,0,.955-.835c2.18-15.956-6.41-26.171-11.987-31a47.138,47.138,0,0,0,9.082.847c.366,0,.738,0,1.113-.011a.966.966,0,0,0,.945-.984,1.033,1.033,0,0,0-.984-.946c-5.555.119-16.039-1.448-22.789-7.457-6.282-5.593-8.555-14.412-8.384-22.821.247-12.129,4-21.53,11.214-28.055,2.748,4.744,7.561,9.521,14.738,10.057,3.5,12.4,10.705,23.857,20.328,31.7a41.7,41.7,0,0,0,20.281,9.34,26.655,26.655,0,0,0-9.571,9.638,2.049,2.049,0,0,0,.476,2.607,1.907,1.907,0,0,0,1.146.38,1.929,1.929,0,0,0,1.717-1.046c2.662-5.159,9.058-9.822,15.938-11.63,26.879-4.2,51.035,3.319,63.062,19.638,3,4.065,11.393,20.875,41.216,21.916a29.051,29.051,0,0,0,13.93-2.948l.008,0c3.584,1.455,4.453,13.366,3.7,21.4a2.88,2.88,0,0,0-.009.394,54.268,54.268,0,0,1-.706,9.783c-1.964,6.986-6.252,15.172-15.612,18.507a2.023,2.023,0,0,0-1.4,2.165,1.932,1.932,0,0,0,2.545,1.524,26.452,26.452,0,0,0,13.573-10.644c5.276,7.707,3.981,38.792,1.195,46.376-3.921,10.674-8.513,15.323-19.206,20.273a.965.965,0,0,0,.949.8,29.227,29.227,0,0,0,15.065-7.171,2.864,2.864,0,0,0,.267.318c2.4,2.371,3.924,6.887,4.54,13.421C213.245,422.986,212.279,450.44,210.171,456.211Zm8.438-53.935c-.331,3.51-.578,7.291-.75,11.174v0c-.172-3.883-.42-7.664-.75-11.174-.633-6.717-2.161-11.7-4.654-15.145a27.88,27.88,0,0,0,3.565-9.1c.656-3.334,4.869-40.785-2.667-52.422a57.617,57.617,0,0,0,2.569-18.181c.333-3.681,1.257-18.158-3.985-24.594a17.074,17.074,0,0,0,3.936-6.306,58.136,58.136,0,0,0,1.986-10.747,58.071,58.071,0,0,0,1.985,10.747,17.076,17.076,0,0,0,3.937,6.306c-5.242,6.436-4.318,20.913-3.986,24.594a57.661,57.661,0,0,0,2.57,18.181c-7.536,11.637-3.323,49.088-2.668,52.422a27.88,27.88,0,0,0,3.565,9.1C220.77,390.572,219.241,395.559,218.609,402.276Zm188.268-98.209a.964.964,0,0,0,1.337.271,52.5,52.5,0,0,0,13.571-12.583c15.922,27.61-6.769,59.5-9.386,63.17a2.867,2.867,0,0,0-.441,1.05c-7.522,9.436-15.492,15.054-22.276,19.833-2.591,1.826-5.017,3.541-7.222,5.3-2.936,1.741-12.524,6.877-18.993,3.95a.966.966,0,0,0-.795,1.76,12.784,12.784,0,0,0,5.292,1.053,26.155,26.155,0,0,0,9.454-2.106,24.963,24.963,0,0,0-6,11.256,42.244,42.244,0,0,1-6.545,15.047c-5,6.958-12.039,13.573-26.411,9.881a.965.965,0,0,0-.481,1.869,32.6,32.6,0,0,0,8.108,1.1,24.59,24.59,0,0,0,3.546-.267c-2.859,2.535-6.534,6.85-7.119,12.668a.985.985,0,0,0,.962,1.061.965.965,0,0,0,.959-.869c.859-8.546,9.546-13.741,9.633-13.793a.963.963,0,0,0,.3-.281c6.481-2.48,10.093-7.481,12.075-10.239a44.15,44.15,0,0,0,6.852-15.721c1.563-6.487,5.286-10.756,10.266-14.768.474-.287.784-.488.856-.535a.95.95,0,0,0,.323-.4c1.877-1.447,3.91-2.88,6.058-4.393,6.53-4.6,14.139-9.968,21.436-18.687a82.965,82.965,0,0,1,1.344,10.878c.014,1.639.039,3.409.084,5.349.019.839,0,1.659-.011,2.484-.584,14.473-5.527,32.63-24.628,41.959a21.992,21.992,0,0,0-6.679,5.153c.1-1.213.169-2.39.235-3.519.2-3.447.374-6.423,1.353-8.72a.965.965,0,0,0-1.775-.758c-1.112,2.608-1.294,5.739-1.5,9.367-.008.125-.017.26-.028.4a30.776,30.776,0,0,1-3.082,11.228c-2.318,4.737-5.7,11.483-6.951,13.148-10.747,14.279-21.71,16.6-27.6,17.849-.689.147-18.869,3.757-30.768-5.854a20.035,20.035,0,0,0,3.083-.837.965.965,0,1,0-.673-1.809c-5.836,2.173-20.687,2.727-28.582-5.816-10.173-11.008-9.649-26.218-7.848-31.467v-.008c1.536-10.91,11.7-19.862,20.257-22a.965.965,0,1,0-.468-1.873c-9.335,2.329-19.952,11.675-21.636,23.309l-.022.09c-2.9,8.674-9.784,12.66-21.015,12A17.474,17.474,0,0,1,238.9,413.64a.953.953,0,0,0-1.06-.858.964.964,0,0,0-.858,1.061A19.4,19.4,0,0,0,255.2,431.184c.817.049,1.614.071,2.392.071,8.089,0,14.019-2.607,17.724-7.769-.378,7.451,1.394,18.463,9.31,27.028a21.191,21.191,0,0,0,5.634,4.29c-3.62,11.317-17.066,16.571-25.089,15.922a20.285,20.285,0,0,1-13.109-6.826,14.03,14.03,0,0,1-3.168-10.458q.407.027.8.027a11.45,11.45,0,0,0,6.881-2.263.965.965,0,0,0-1.248-1.472c-.2.169-5,4.082-11.725-.083a.964.964,0,1,0-1.016,1.639,14.533,14.533,0,0,0,4.4,1.858,15.908,15.908,0,0,0,3.591,11.978,22.334,22.334,0,0,0,14.307,7.5c4.817,1.276,7.136,6,7.733,7.421a.965.965,0,0,0,1.779-.747,16.434,16.434,0,0,0-5.249-6.752c8.476-.984,19.42-6.6,22.868-16.9a34.178,34.178,0,0,0,13.509,2.629,37.447,37.447,0,0,0,4.31-.246l.282.276c2.852,2.809,9.9,9.752,25.493,9.752.132,0,.276-.01.409-.011-6.446,18.334-26.6,24.617-36.929,23.167a13.412,13.412,0,0,0,4.537-5.7.965.965,0,0,0-.544-1.251,1,1,0,0,0-1.252.542c-6.035,11.411-32.193,11.566-46.272,4.729-6.851-3.327-12.407-9.168-12.7-13.594,5.636,1.612,10.931.036,10.945-.488a.964.964,0,0,0-.938-.991,45.542,45.542,0,0,1-11.242-2.141,2.872,2.872,0,0,0-1.008-.6c-4.894-1.655-11.48-5.689-15.069-15.516-2.108-5.771-3.074-33.225-1.174-53.392.616-6.534,2.144-11.05,4.54-13.421a2.874,2.874,0,0,0,.268-.318,29.228,29.228,0,0,0,15.064,7.171.965.965,0,0,0,.949-.8c-10.693-4.95-15.285-9.6-19.206-20.273-2.786-7.584-4.08-38.669,1.2-46.376a26.453,26.453,0,0,0,13.572,10.644,1.933,1.933,0,0,0,2.546-1.524,2.022,2.022,0,0,0-1.4-2.165c-9.359-3.335-13.648-11.521-15.612-18.507a54.268,54.268,0,0,1-.706-9.783,2.729,2.729,0,0,0-.009-.394c-.751-8.038.118-19.949,3.7-21.4l.009,0a29.047,29.047,0,0,0,13.929,2.948c29.824-1.041,38.221-17.851,41.217-21.916,12.027-16.319,36.183-23.841,63.062-19.638,6.879,1.808,13.276,6.471,15.937,11.63a1.93,1.93,0,0,0,1.717,1.046,1.91,1.91,0,0,0,1.147-.38,2.05,2.05,0,0,0,.475-2.607,26.655,26.655,0,0,0-9.571-9.638,41.694,41.694,0,0,0,20.281-9.34c9.624-7.84,16.834-19.3,20.328-31.7,7.177-.536,11.991-5.313,14.738-10.057,7.212,6.525,10.967,15.926,11.214,28.055.172,8.409-2.1,17.228-8.384,22.821-6.749,6.009-17.234,7.576-22.789,7.457a1.034,1.034,0,0,0-.984.946.967.967,0,0,0,.946.984q.563.01,1.113.011a47.127,47.127,0,0,0,9.081-.847c-5.577,4.826-14.166,15.041-11.986,31a.965.965,0,0,0,.955.835.99.99,0,0,0,.957-1.095c-1.545-11.311,3.267-19.045,7.754-24.3,5.418-6.347,14.859-10.68,19.91-15.506a25.979,25.979,0,0,0,4.991-6.782c3.976,6,5.3,15.463,4.009,25.1-1.823,13.589-16.253,34.1-22.186,38.029A.964.964,0,0,0,406.877,304.067Z" fill="inherit"/><path d="M374.985,363.042c-1.708,2.146-14.413,8.825-27.639,9.035-4.344.01-10.425-.974-14.511-3.05-1.035-.524-2.006-1.028-2.938-1.513-5-2.6-8.949-4.647-15.365-6.125-13.046-3-25.559-1.153-35.24,5.207a34.238,34.238,0,0,0-15.172,22.491,1,1,0,0,0,.95,1.14.965.965,0,0,0,.948-.789,32.323,32.323,0,0,1,14.333-21.229c9.238-6.07,21.224-7.825,33.748-4.939,6.177,1.423,10.03,3.424,14.908,5.957.938.486,1.914,1,2.954,1.523a32.076,32.076,0,0,0,14.067,3.275c2.644,8.471-.649,22.447-12.564,27.638-5.29,2.3-11.35,5.5-15.52,10.32a.949.949,0,0,0-.264.215c-.068.085-6.857,8.258-13.464,7.258a.964.964,0,1,0-.286,1.907,9.513,9.513,0,0,0,1.423.105c3.3,0,6.431-1.645,8.883-3.448a21.636,21.636,0,0,0-.7,12.968.966.966,0,0,0,.941.752c.733-.142,1.059-.658.942-1.178-2.69-11.924,3.113-20.292,18.814-27.131a23.928,23.928,0,0,0,13.12-14.587,26.438,26.438,0,0,0,.694-14.835c13.736-.435,26.592-7.435,28.447-9.765a.965.965,0,1,0-1.51-1.2Z" fill="inherit"/><path d="M276.818,181.961a25.157,25.157,0,0,0,10.77,2.375,26.019,26.019,0,0,0,4.7-.429,81.766,81.766,0,0,0-8.521,10.169.965.965,0,0,0,1.551,1.149c3.51-4.742,7.055-9.257,11.305-12.527.037-.014.075-.023.111-.037a.947.947,0,0,0,.446-.383,25.175,25.175,0,0,1,4.439-2.631c6.171-2.812,13.812-3.025,23.359-.65,2.992.744,5.729,1.57,8.376,2.369a103.353,103.353,0,0,0,13.583,3.417c5.634.933,13.926-.8,18.643-8.035a34.179,34.179,0,0,0,.175,4.905c.168,1.5.418,2.994.665,4.466.809,4.809,1.572,9.35-.845,13.365a.965.965,0,1,0,1.653,1c2.786-4.627,1.927-9.738,1.1-14.68-.242-1.439-.487-2.894-.65-4.363a35.432,35.432,0,0,1,12.534-30.6.965.965,0,1,0-1.223-1.493,37.3,37.3,0,0,0-12.022,18.6.96.96,0,0,0-.169.381c-2.542,13.654-13.894,15.487-19.54,14.547a102.086,102.086,0,0,1-13.342-3.36c-2.669-.805-5.43-1.638-8.468-2.4-9.988-2.486-18.042-2.236-24.625.766a27.41,27.41,0,0,0-5.142,3.1,24.061,24.061,0,0,1-18.032-.768.964.964,0,1,0-.829,1.741Z" fill="inherit"/><path d="M245.07,236a.966.966,0,0,0,.366-.072c10.135-4.159,17.113-20.984,15.566-31.167a23.159,23.159,0,0,0,9.394,5.732.925.925,0,0,0,.269.038.965.965,0,0,0,.268-1.892,18.432,18.432,0,0,1-4.567-2.081,22.239,22.239,0,0,1-8.653-10.5c-1.616-3.916-3.571-9.685-2.32-12.441a.966.966,0,0,0-.48-1.278,1.011,1.011,0,0,0-1.277.479c-4.122,6.781,2.748,17.653,3.462,18.7,4.644,6.965-2.271,28.472-12.4,32.624A.966.966,0,0,0,245.07,236Z" fill="inherit"/><path d="M310.914,139.562c9.045-1.406,16.594-.075,22.805,4.019a.955.955,0,0,0,.448.286A34.239,34.239,0,0,1,344.175,155.1a.964.964,0,1,0,1.666-.972,36.053,36.053,0,0,0-10.407-11.67c.22-6.7,3.441-13.007,8.9-17.938a.87.87,0,0,0,.212-.077c.416-.253,10.266-6.113,17.026,1.479a.965.965,0,0,0,1.442-1.283c-4.118-4.624-9.248-4.916-13.21-4.143a39.064,39.064,0,0,1,4.945-2.508c1.953-.818,8.351-4.029,8.677-10.984a.965.965,0,1,0-1.928-.09c-.272,5.824-5.806,8.586-7.5,9.295-11.919,5-19.6,14.493-20.433,25.061q-9.6-5.65-22.948-3.61a.965.965,0,0,0,.3,1.907Z" fill="inherit"/><path d="M379.421,335.142a168.781,168.781,0,0,0-18.172.766c-.24.022-24.461,2.4-41.241-15.532a.965.965,0,0,0-1.41,1.319c12.376,13.224,28.621,15.818,37.117,16.2-10.423,3.866-11.056,10.366-11.084,10.771a.98.98,0,0,0,.965,1.031.965.965,0,0,0,.962-.9c.009-.122,1.465-12.958,32.787-11.724,14.762.577,23.671-4.911,28.55-9.617a28.823,28.823,0,0,0,7.157-10.554.965.965,0,0,0-1.831-.608C412.948,317.106,406.23,336.217,379.421,335.142Z" fill="inherit"/><path d="M298.028,301.091a59.979,59.979,0,0,0,8.651-7.841c15.318-9.753,37.674-2.922,41.031-1.806,1.081,2.951,7.58,18.724,23.166,19.268a.965.965,0,0,0,.033-1.93c-13.317-.466-19.473-13.2-21.08-17.2a22.65,22.65,0,0,0,15.561-8.878.966.966,0,0,0-1.514-1.2c-6.225,7.861-14.17,8.2-15.248,8.211-2.222-.782-22.421-7.5-38.684-.375a45.808,45.808,0,0,0,4.935-7.779.965.965,0,0,0-1.759-.794,49.318,49.318,0,0,1-7.758,11.072.963.963,0,0,0-.158.175,56.984,56.984,0,0,1-28.344,16.99.965.965,0,0,0,.236,1.9.93.93,0,0,0,.238-.03,58.809,58.809,0,0,0,18.97-8.555c.765,4.867,1.531,22.739-24.766,35.876A57.482,57.482,0,0,0,260.7,345.07a26.389,26.389,0,0,1-5.491,3.488c-4.119,1.938-10.595,3.7-17.174.106a.965.965,0,0,0-.923,1.7,18.794,18.794,0,0,0,9.1,2.358,22.084,22.084,0,0,0,8.872-1.977,24.431,24.431,0,0,0-4.54,8.839,18.017,18.017,0,0,0,.322,11.019.964.964,0,0,0,1.772-.761c-.286-.677-6.712-16.688,19.764-29.915C301.363,325.454,298.7,304.582,298.028,301.091Z" fill="inherit"/></g></svg>