<?xml version="1.0" encoding="UTF-8" standalone="no"?><svg xmlns="http://www.w3.org/2000/svg" xmlns:xlink="http://www.w3.org/1999/xlink" data-name="Слой 1" fill="#000000" height="357.6" preserveAspectRatio="xMidYMid meet" version="1" viewBox="170.6 81.0 224.9 357.6" width="224.9" zoomAndPan="magnify"><path d="M0 0H500V500H0z" fill="none"/><g id="change1_1"><path d="M262.3,262.2c-51.93-38.66-81-77.14-91.69-141.49,39.59,52.47,63.2,83.47,93.71,142.46C263.67,263.18,262.91,262.55,262.3,262.2Z" fill="#583536"/></g><g id="change1_2"><path d="M303.82,262.2c51.93-38.66,81-77.14,91.69-141.49-39.59,52.47-63.2,83.47-93.71,142.46C302.45,263.18,303.21,262.55,303.82,262.2Z" fill="#583536"/></g><g id="change1_3"><path d="M282.89,438.39C259.62,320.74,271.83,199.76,278,81c33.82,112.47,19.68,240.21,5,357.1C283.14,438.16,283,438.59,282.89,438.39Z" fill="#583536"/></g></svg>