<?xml version="1.0" encoding="UTF-8" standalone="no"?><svg xmlns="http://www.w3.org/2000/svg" xmlns:xlink="http://www.w3.org/1999/xlink" clip-rule="evenodd" fill="#000000" fill-rule="evenodd" height="185.6" preserveAspectRatio="xMidYMid meet" stroke-linejoin="round" stroke-miterlimit="2" version="1" viewBox="53.6 7.3 94.0 185.6" width="94" zoomAndPan="magnify"><g><path d="M2208.33 0H4208.33V2000H2208.33z" fill="none" transform="matrix(.1 0 0 .1 -220.833 0)"/><g><g id="change1_1"><path d="M1091.07,521.336L958.821,521.336L958.821,531.764C958.821,533.746 960.137,535.648 962.478,537.05C964.819,538.452 967.995,539.239 971.306,539.239C996.531,539.239 1053.31,539.239 1078.56,539.239C1081.88,539.239 1085.06,538.45 1087.4,537.045C1089.75,535.64 1091.07,533.735 1091.07,531.748C1091.07,526.843 1091.07,521.336 1091.07,521.336Z" fill="#2f1500" transform="matrix(.34727 0 0 .57996 -255.501 -293.834)"/></g><g id="change1_3"><path d="M875.291,637.86L871.727,637.86C871.051,637.86 870.402,638.169 869.924,638.718C869.446,639.268 869.178,640.013 869.178,640.791C869.178,648.646 869.178,670.109 869.178,677.999C869.178,679.634 870.331,680.96 871.753,680.96C873.424,680.96 875.291,680.96 875.291,680.96L875.291,637.86Z" fill="#2f1500" transform="matrix(-.35226 0 0 .51229 453.716 -277.275)"/></g><g id="change2_1"><path d="M1064.3,527.887C1066.31,527.887 1067.94,529.48 1067.94,531.443C1067.94,533.406 1066.31,534.999 1064.3,534.999C1062.3,534.999 1060.67,533.406 1060.67,531.443C1060.67,529.48 1062.3,527.887 1064.3,527.887ZM1046.14,531.324C1046.14,530.688 1045.89,530.077 1045.44,529.627C1044.99,529.177 1044.38,528.924 1043.74,528.924L1005.95,528.924C1005.3,528.924 1004.68,529.182 1004.22,529.641C1003.76,530.1 1003.5,530.722 1003.5,531.371C1003.5,531.419 1003.5,531.467 1003.5,531.515C1003.5,532.164 1003.76,532.786 1004.22,533.245C1004.68,533.704 1005.3,533.962 1005.95,533.962C1013.49,533.962 1036.27,533.962 1043.74,533.962C1044.38,533.962 1044.99,533.709 1045.44,533.259C1045.89,532.809 1046.14,532.199 1046.14,531.562L1046.14,531.324Z" fill="#fcf6db" transform="matrix(.28965 0 0 .28965 -197.15 -138.987)"/></g><g id="change1_2"><path d="M873.031,694.203L868.696,694.203C867.874,694.203 867.085,694.529 866.504,695.111C865.923,695.692 865.596,696.481 865.596,697.303C865.596,705.611 865.596,728.313 865.596,736.659C865.596,738.389 866.998,739.791 868.728,739.791C870.76,739.791 873.031,739.791 873.031,739.791L873.031,694.203ZM873.031,635.672L868.696,635.672C867.874,635.672 867.085,635.998 866.504,636.58C865.923,637.161 865.596,637.95 865.596,638.772C865.596,647.08 865.596,669.782 865.596,678.128C865.596,679.858 866.998,681.26 868.728,681.26C870.76,681.26 873.031,681.26 873.031,681.26L873.031,635.672ZM873.031,615.225L868.696,615.225C867.874,615.225 867.085,614.898 866.504,614.317C865.923,613.736 865.596,612.947 865.596,612.125L865.596,591.508C865.596,590.686 865.923,589.898 866.504,589.316C867.085,588.735 867.874,588.408 868.696,588.408L873.031,588.408L873.031,615.225Z" fill="#2f1500" transform="matrix(.28965 0 0 .28965 -197.15 -138.987)"/></g><g id="change1_4"><path d="M795.112,2256.62C795.112,2245.24 790.593,2234.33 782.547,2226.28C774.502,2218.24 763.59,2213.72 752.212,2213.72L522.397,2213.72C511.012,2213.72 500.094,2218.24 492.043,2226.29C483.993,2234.34 479.47,2245.26 479.47,2256.64C479.47,2373.24 479.47,2694.88 479.47,2811.44C479.47,2822.82 483.99,2833.73 492.035,2841.78C500.081,2849.82 510.993,2854.34 522.37,2854.34L752.212,2854.34C763.59,2854.34 774.502,2849.82 782.547,2841.78C790.593,2833.73 795.112,2822.82 795.112,2811.44L795.112,2256.62ZM776.683,2805.87L776.683,2262.2C776.683,2245.85 763.431,2232.6 747.083,2232.6C693.509,2232.6 581.062,2232.6 527.493,2232.6C519.644,2232.6 512.117,2235.71 506.567,2241.26C501.017,2246.81 497.9,2254.34 497.9,2262.19L497.9,2805.87C497.9,2822.21 511.152,2835.47 527.5,2835.47C581.071,2835.47 693.511,2835.47 747.083,2835.47C763.431,2835.47 776.683,2822.21 776.683,2805.87Z" fill="#2f1500" transform="matrix(.28965 0 0 .28965 -83.841 -633.867)"/></g></g></g></svg>